<mxfile host="app.diagrams.net" modified="2022-03-03T06:25:30.053Z" agent="5.0 (Windows NT 10.0; Win64; x64) AppleWebKit/537.36 (KHTML, like Gecko) Chrome/98.0.4758.102 Safari/537.36 Edg/98.0.1108.62" etag="9-apCuzzKIW-3A0tS5PC" compressed="false" version="16.6.4" type="device">
  <diagram id="leg8R0Sc_TnhsgntIGAf" name="Page-1">
    <mxGraphModel dx="1085" dy="603" grid="1" gridSize="10" guides="1" tooltips="1" connect="1" arrows="1" fold="1" page="1" pageScale="1" pageWidth="827" pageHeight="1169" math="0" shadow="0">
      <root>
        <mxCell id="0" />
        <mxCell id="1" parent="0" />
        <mxCell id="dqKABztNdUeOiQ4xiMBX-2" value="Fixed Deposit" style="ellipse;whiteSpace=wrap;html=1;strokeWidth=1;" vertex="1" parent="1">
          <mxGeometry x="440" y="90" width="120" height="80" as="geometry" />
        </mxCell>
        <mxCell id="dqKABztNdUeOiQ4xiMBX-3" value="Open Account" style="ellipse;whiteSpace=wrap;html=1;strokeWidth=1;" vertex="1" parent="1">
          <mxGeometry x="210" y="90" width="120" height="80" as="geometry" />
        </mxCell>
        <mxCell id="dqKABztNdUeOiQ4xiMBX-4" value="Credit Card Request" style="ellipse;whiteSpace=wrap;html=1;strokeWidth=1;" vertex="1" parent="1">
          <mxGeometry x="310.5" y="260" width="120" height="80" as="geometry" />
        </mxCell>
        <mxCell id="dqKABztNdUeOiQ4xiMBX-5" value="Debit Card Request" style="ellipse;whiteSpace=wrap;html=1;strokeWidth=1;" vertex="1" parent="1">
          <mxGeometry x="200.50000000000003" y="440" width="120" height="80" as="geometry" />
        </mxCell>
        <mxCell id="dqKABztNdUeOiQ4xiMBX-6" value="Renew / Replacement" style="ellipse;whiteSpace=wrap;html=1;strokeWidth=1;" vertex="1" parent="1">
          <mxGeometry x="430.5" y="440" width="120" height="80" as="geometry" />
        </mxCell>
        <mxCell id="dqKABztNdUeOiQ4xiMBX-9" value="&lt;div&gt;Account services&lt;/div&gt;" style="rounded=1;whiteSpace=wrap;html=1;strokeWidth=1;arcSize=27;fillColor=none;strokeColor=none;" vertex="1" parent="1">
          <mxGeometry x="310" y="30" width="130" height="30" as="geometry" />
        </mxCell>
        <mxCell id="dqKABztNdUeOiQ4xiMBX-13" value="&amp;lt;&amp;lt;include&amp;gt;&amp;gt;" style="endArrow=open;dashed=1;html=1;endFill=0;rounded=0;" edge="1" parent="1">
          <mxGeometry width="50" height="50" relative="1" as="geometry">
            <mxPoint x="330" y="130" as="sourcePoint" />
            <mxPoint x="440" y="130" as="targetPoint" />
          </mxGeometry>
        </mxCell>
        <mxCell id="dqKABztNdUeOiQ4xiMBX-14" value="join" style="line;strokeWidth=2;labelBackgroundColor=none;fillColor=none;rotation=90;strokeColor=default;fontColor=none;noLabel=1;" vertex="1" parent="1">
          <mxGeometry x="90" y="110" width="180" height="10" as="geometry" />
        </mxCell>
        <mxCell id="dqKABztNdUeOiQ4xiMBX-15" value="join" style="line;strokeWidth=2;labelBackgroundColor=none;fillColor=none;rotation=-180;strokeColor=default;fontColor=none;noLabel=1;" vertex="1" parent="1">
          <mxGeometry x="180" y="200" width="390" height="10" as="geometry" />
        </mxCell>
        <mxCell id="dqKABztNdUeOiQ4xiMBX-16" value="join" style="line;strokeWidth=2;labelBackgroundColor=none;fillColor=none;rotation=90;strokeColor=default;fontColor=none;noLabel=1;" vertex="1" parent="1">
          <mxGeometry x="480" y="110" width="180" height="10" as="geometry" />
        </mxCell>
        <mxCell id="dqKABztNdUeOiQ4xiMBX-17" value="join" style="line;strokeWidth=2;labelBackgroundColor=none;fillColor=none;rotation=-180;strokeColor=default;fontColor=none;noLabel=1;" vertex="1" parent="1">
          <mxGeometry x="179" y="20" width="390" height="10" as="geometry" />
        </mxCell>
        <mxCell id="dqKABztNdUeOiQ4xiMBX-39" style="edgeStyle=orthogonalEdgeStyle;rounded=0;orthogonalLoop=1;jettySize=auto;html=1;fontColor=none;entryX=0.449;entryY=0.625;entryDx=0;entryDy=0;entryPerimeter=0;" edge="1" parent="1" source="dqKABztNdUeOiQ4xiMBX-18" target="dqKABztNdUeOiQ4xiMBX-14">
          <mxGeometry relative="1" as="geometry">
            <Array as="points">
              <mxPoint x="45" y="106" />
            </Array>
          </mxGeometry>
        </mxCell>
        <mxCell id="dqKABztNdUeOiQ4xiMBX-40" style="edgeStyle=orthogonalEdgeStyle;rounded=0;orthogonalLoop=1;jettySize=auto;html=1;fontColor=none;entryX=0.459;entryY=0.55;entryDx=0;entryDy=0;entryPerimeter=0;" edge="1" parent="1" source="dqKABztNdUeOiQ4xiMBX-18" target="dqKABztNdUeOiQ4xiMBX-24">
          <mxGeometry relative="1" as="geometry">
            <Array as="points">
              <mxPoint x="120" y="350" />
              <mxPoint x="120" y="280" />
              <mxPoint x="260" y="280" />
            </Array>
          </mxGeometry>
        </mxCell>
        <mxCell id="dqKABztNdUeOiQ4xiMBX-41" style="edgeStyle=orthogonalEdgeStyle;rounded=0;orthogonalLoop=1;jettySize=auto;html=1;entryX=0.629;entryY=0.625;entryDx=0;entryDy=0;fontColor=none;entryPerimeter=0;" edge="1" parent="1" source="dqKABztNdUeOiQ4xiMBX-18" target="dqKABztNdUeOiQ4xiMBX-29">
          <mxGeometry relative="1" as="geometry">
            <Array as="points">
              <mxPoint x="120" y="350" />
              <mxPoint x="120" y="478" />
            </Array>
          </mxGeometry>
        </mxCell>
        <mxCell id="dqKABztNdUeOiQ4xiMBX-42" style="edgeStyle=orthogonalEdgeStyle;rounded=0;orthogonalLoop=1;jettySize=auto;html=1;fontColor=none;entryX=0.459;entryY=0.8;entryDx=0;entryDy=0;entryPerimeter=0;" edge="1" parent="1" source="dqKABztNdUeOiQ4xiMBX-18" target="dqKABztNdUeOiQ4xiMBX-35">
          <mxGeometry relative="1" as="geometry">
            <Array as="points">
              <mxPoint x="45" y="630" />
            </Array>
          </mxGeometry>
        </mxCell>
        <mxCell id="dqKABztNdUeOiQ4xiMBX-18" value="Customer" style="shape=umlActor;verticalLabelPosition=bottom;verticalAlign=top;html=1;outlineConnect=0;labelBackgroundColor=none;fontColor=none;strokeColor=default;strokeWidth=2;fillColor=none;" vertex="1" parent="1">
          <mxGeometry x="30" y="320" width="30" height="60" as="geometry" />
        </mxCell>
        <mxCell id="dqKABztNdUeOiQ4xiMBX-21" value="join" style="line;strokeWidth=2;labelBackgroundColor=none;fillColor=none;rotation=-180;strokeColor=default;fontColor=none;noLabel=1;" vertex="1" parent="1">
          <mxGeometry x="280" y="220" width="180" height="10" as="geometry" />
        </mxCell>
        <mxCell id="dqKABztNdUeOiQ4xiMBX-22" value="join" style="line;strokeWidth=2;labelBackgroundColor=none;fillColor=none;rotation=-180;strokeColor=default;fontColor=none;noLabel=1;" vertex="1" parent="1">
          <mxGeometry x="280.5" y="340" width="180" height="10" as="geometry" />
        </mxCell>
        <mxCell id="dqKABztNdUeOiQ4xiMBX-24" value="join" style="line;strokeWidth=2;labelBackgroundColor=none;fillColor=none;rotation=90;strokeColor=default;fontColor=none;noLabel=1;" vertex="1" parent="1">
          <mxGeometry x="219.98" y="279.49" width="121.04" height="10" as="geometry" />
        </mxCell>
        <mxCell id="dqKABztNdUeOiQ4xiMBX-25" value="join" style="line;strokeWidth=2;labelBackgroundColor=none;fillColor=none;rotation=90;strokeColor=default;fontColor=none;noLabel=1;" vertex="1" parent="1">
          <mxGeometry x="399.03" y="279.52" width="120.95" height="10" as="geometry" />
        </mxCell>
        <mxCell id="dqKABztNdUeOiQ4xiMBX-26" value="&lt;div&gt;Credit Card&lt;/div&gt;" style="rounded=1;whiteSpace=wrap;html=1;strokeWidth=1;arcSize=27;fillColor=none;strokeColor=none;" vertex="1" parent="1">
          <mxGeometry x="310.5" y="230" width="130" height="20" as="geometry" />
        </mxCell>
        <mxCell id="dqKABztNdUeOiQ4xiMBX-27" value="join" style="line;strokeWidth=2;labelBackgroundColor=none;fillColor=none;rotation=-180;strokeColor=default;fontColor=none;noLabel=1;" vertex="1" parent="1">
          <mxGeometry x="179" y="540" width="390" height="10" as="geometry" />
        </mxCell>
        <mxCell id="dqKABztNdUeOiQ4xiMBX-28" value="join" style="line;strokeWidth=2;labelBackgroundColor=none;fillColor=none;rotation=-180;strokeColor=default;fontColor=none;noLabel=1;" vertex="1" parent="1">
          <mxGeometry x="179" y="360" width="390" height="10" as="geometry" />
        </mxCell>
        <mxCell id="dqKABztNdUeOiQ4xiMBX-29" value="join" style="line;strokeWidth=2;labelBackgroundColor=none;fillColor=none;rotation=90;strokeColor=default;fontColor=none;noLabel=1;" vertex="1" parent="1">
          <mxGeometry x="90" y="450" width="180" height="10" as="geometry" />
        </mxCell>
        <mxCell id="dqKABztNdUeOiQ4xiMBX-30" value="&lt;div&gt;Debit Card&lt;/div&gt;" style="rounded=1;whiteSpace=wrap;html=1;strokeWidth=1;arcSize=27;fillColor=none;strokeColor=none;" vertex="1" parent="1">
          <mxGeometry x="305" y="380" width="130" height="30" as="geometry" />
        </mxCell>
        <mxCell id="dqKABztNdUeOiQ4xiMBX-31" value="join" style="line;strokeWidth=2;labelBackgroundColor=none;fillColor=none;rotation=90;strokeColor=default;fontColor=none;noLabel=1;" vertex="1" parent="1">
          <mxGeometry x="479" y="450" width="180" height="10" as="geometry" />
        </mxCell>
        <mxCell id="dqKABztNdUeOiQ4xiMBX-32" value="&amp;lt;&amp;lt;include&amp;gt;&amp;gt;" style="endArrow=open;dashed=1;html=1;endFill=0;rounded=0;" edge="1" parent="1">
          <mxGeometry width="50" height="50" relative="1" as="geometry">
            <mxPoint x="320.5" y="479.57" as="sourcePoint" />
            <mxPoint x="430.5" y="479.57" as="targetPoint" />
          </mxGeometry>
        </mxCell>
        <mxCell id="dqKABztNdUeOiQ4xiMBX-33" value="View CRN" style="ellipse;whiteSpace=wrap;html=1;strokeWidth=1;" vertex="1" parent="1">
          <mxGeometry x="310.5" y="610" width="120" height="80" as="geometry" />
        </mxCell>
        <mxCell id="dqKABztNdUeOiQ4xiMBX-34" value="join" style="line;strokeWidth=2;labelBackgroundColor=none;fillColor=none;rotation=-180;strokeColor=default;fontColor=none;noLabel=1;" vertex="1" parent="1">
          <mxGeometry x="280" y="570" width="180" height="10" as="geometry" />
        </mxCell>
        <mxCell id="dqKABztNdUeOiQ4xiMBX-35" value="join" style="line;strokeWidth=2;labelBackgroundColor=none;fillColor=none;rotation=90;strokeColor=default;fontColor=none;noLabel=1;" vertex="1" parent="1">
          <mxGeometry x="219.98" y="629.49" width="121.04" height="10" as="geometry" />
        </mxCell>
        <mxCell id="dqKABztNdUeOiQ4xiMBX-36" value="join" style="line;strokeWidth=2;labelBackgroundColor=none;fillColor=none;rotation=90;strokeColor=default;fontColor=none;noLabel=1;" vertex="1" parent="1">
          <mxGeometry x="399.03" y="629.52" width="120.95" height="10" as="geometry" />
        </mxCell>
        <mxCell id="dqKABztNdUeOiQ4xiMBX-37" value="&lt;div&gt;DEMAT SERVICES&lt;/div&gt;" style="rounded=1;whiteSpace=wrap;html=1;strokeWidth=1;arcSize=27;fillColor=none;strokeColor=none;" vertex="1" parent="1">
          <mxGeometry x="310.5" y="580" width="130" height="20" as="geometry" />
        </mxCell>
        <mxCell id="dqKABztNdUeOiQ4xiMBX-38" value="join" style="line;strokeWidth=2;labelBackgroundColor=none;fillColor=none;rotation=-180;strokeColor=default;fontColor=none;noLabel=1;" vertex="1" parent="1">
          <mxGeometry x="280" y="690" width="180" height="10" as="geometry" />
        </mxCell>
        <mxCell id="dqKABztNdUeOiQ4xiMBX-45" style="edgeStyle=orthogonalEdgeStyle;rounded=0;orthogonalLoop=1;jettySize=auto;html=1;exitX=0.5;exitY=0.5;exitDx=0;exitDy=0;exitPerimeter=0;fontColor=none;entryX=0.386;entryY=0.469;entryDx=0;entryDy=0;entryPerimeter=0;" edge="1" parent="1" source="dqKABztNdUeOiQ4xiMBX-44" target="dqKABztNdUeOiQ4xiMBX-46">
          <mxGeometry relative="1" as="geometry">
            <mxPoint x="630" y="290" as="targetPoint" />
            <Array as="points">
              <mxPoint x="670" y="285" />
            </Array>
          </mxGeometry>
        </mxCell>
        <mxCell id="dqKABztNdUeOiQ4xiMBX-44" value="Bank manager" style="shape=umlActor;verticalLabelPosition=bottom;verticalAlign=top;html=1;outlineConnect=0;labelBackgroundColor=none;fontColor=none;strokeColor=default;strokeWidth=2;fillColor=none;" vertex="1" parent="1">
          <mxGeometry x="760" y="254.49" width="30" height="60" as="geometry" />
        </mxCell>
        <mxCell id="dqKABztNdUeOiQ4xiMBX-47" style="edgeStyle=orthogonalEdgeStyle;rounded=0;orthogonalLoop=1;jettySize=auto;html=1;exitX=0;exitY=0.5;exitDx=0;exitDy=0;exitPerimeter=0;entryX=0;entryY=0.5;entryDx=0;entryDy=0;entryPerimeter=0;fontColor=none;" edge="1" parent="1" source="dqKABztNdUeOiQ4xiMBX-46" target="dqKABztNdUeOiQ4xiMBX-17">
          <mxGeometry relative="1" as="geometry" />
        </mxCell>
        <mxCell id="dqKABztNdUeOiQ4xiMBX-48" style="edgeStyle=orthogonalEdgeStyle;rounded=0;orthogonalLoop=1;jettySize=auto;html=1;exitX=1;exitY=0.5;exitDx=0;exitDy=0;exitPerimeter=0;entryX=0;entryY=0.5;entryDx=0;entryDy=0;entryPerimeter=0;fontColor=none;" edge="1" parent="1" source="dqKABztNdUeOiQ4xiMBX-46" target="dqKABztNdUeOiQ4xiMBX-38">
          <mxGeometry relative="1" as="geometry">
            <Array as="points">
              <mxPoint x="550" y="695" />
              <mxPoint x="550" y="695" />
            </Array>
          </mxGeometry>
        </mxCell>
        <mxCell id="dqKABztNdUeOiQ4xiMBX-46" value="" style="line;strokeWidth=3;html=1;labelBackgroundColor=none;fontColor=none;fillColor=none;rotation=90;" vertex="1" parent="1">
          <mxGeometry x="267.49" y="357.54" width="670.01" height="4.97" as="geometry" />
        </mxCell>
        <mxCell id="dqKABztNdUeOiQ4xiMBX-49" style="edgeStyle=orthogonalEdgeStyle;rounded=0;orthogonalLoop=1;jettySize=auto;html=1;entryX=0.495;entryY=0.022;entryDx=0;entryDy=0;entryPerimeter=0;fontColor=none;exitX=0.25;exitY=0.5;exitDx=0;exitDy=0;exitPerimeter=0;" edge="1" parent="1" source="dqKABztNdUeOiQ4xiMBX-46" target="dqKABztNdUeOiQ4xiMBX-25">
          <mxGeometry relative="1" as="geometry">
            <Array as="points">
              <mxPoint x="603" y="284" />
            </Array>
          </mxGeometry>
        </mxCell>
        <mxCell id="dqKABztNdUeOiQ4xiMBX-50" style="edgeStyle=orthogonalEdgeStyle;rounded=0;orthogonalLoop=1;jettySize=auto;html=1;entryX=0.589;entryY=0.257;entryDx=0;entryDy=0;entryPerimeter=0;fontColor=none;exitX=0.664;exitY=0.477;exitDx=0;exitDy=0;exitPerimeter=0;" edge="1" parent="1" source="dqKABztNdUeOiQ4xiMBX-46" target="dqKABztNdUeOiQ4xiMBX-31">
          <mxGeometry relative="1" as="geometry">
            <mxPoint x="580" y="400" as="sourcePoint" />
            <mxPoint x="460.0049999999999" y="471.39525000000003" as="targetPoint" />
            <Array as="points">
              <mxPoint x="603" y="471" />
            </Array>
          </mxGeometry>
        </mxCell>
      </root>
    </mxGraphModel>
  </diagram>
</mxfile>
